{
  "accessors": [
    {
      "bufferView": 2,
      "componentType": 5126,
      "count": 546,
      "max": [
        0.81685400009155273,
        0.81969600915908813,
        0.026955999433994293
      ],
      "min": [
        -0.81685400009155273,
        -0.81969600915908813,
        -0.1537649929523468
      ],
      "type": "VEC3"
    },
    {
      "bufferView": 2,
      "byteOffset": 6552,
      "componentType": 5126,
      "count": 546,
      "max": [
        0.99220925569534302,
        0.99025595188140869,
        1
      ],
      "min": [
        -0.99220925569534302,
        -0.99025595188140869,
        -1
      ],
      "type": "VEC3"
    },
    {
      "bufferView": 0,
      "componentType": 5125,
      "count": 3264,
      "max": [
        545
      ],
      "min": [
        0
      ],
      "type": "SCALAR"
    },
    {
      "bufferView": 2,
      "byteOffset": 13104,
      "componentType": 5126,
      "count": 288,
      "max": [
        0.8880460262298584,
        0.8880460262298584,
        0.24910099804401398
      ],
      "min": [
        -0.8880460262298584,
        -0.8880460262298584,
        0.025983000174164772
      ],
      "type": "VEC3"
    },
    {
      "bufferView": 2,
      "byteOffset": 16560,
      "componentType": 5126,
      "count": 288,
      "max": [
        0.89342492818832397,
        0.89342492818832397,
        0.99917960166931152
      ],
      "min": [
        -0.89342492818832397,
        -0.89342492818832397,
        -0.50233298540115356
      ],
      "type": "VEC3"
    },
    {
      "bufferView": 3,
      "componentType": 5126,
      "count": 288,
      "max": [
        1,
        0.93581658601760864,
        0.89319384098052979,
        1
      ],
      "min": [
        -0.44795882701873779,
        -0.8380005955696106,
        -0.89319342374801636,
        -1
      ],
      "type": "VEC4"
    },
    {
      "bufferView": 1,
      "componentType": 5126,
      "count": 288,
      "max": [
        0.99277800321578979,
        0.99371802806854248
      ],
      "min": [
        0.0065399999730288982,
        0.0074800001457333565
      ],
      "type": "VEC2"
    },
    {
      "bufferView": 0,
      "byteOffset": 13056,
      "componentType": 5125,
      "count": 1716,
      "max": [
        287
      ],
      "min": [
        0
      ],
      "type": "SCALAR"
    },
    {
      "bufferView": 2,
      "byteOffset": 20016,
      "componentType": 5126,
      "count": 2820,
      "max": [
        0.98982197046279907,
        0.98913300037384033,
        1.0758600234985352
      ],
      "min": [
        -0.99083602428436279,
        -0.98967897891998291,
        -0.51254397630691528
      ],
      "type": "VEC3"
    },
    {
      "bufferView": 2,
      "byteOffset": 53856,
      "componentType": 5126,
      "count": 2820,
      "max": [
        0.99923914670944214,
        0.99923914670944214,
        1
      ],
      "min": [
        -0.99925488233566284,
        -0.99923914670944214,
        -1
      ],
      "type": "VEC3"
    },
    {
      "bufferView": 3,
      "byteOffset": 4608,
      "componentType": 5126,
      "count": 2820,
      "max": [
        0.99830251932144165,
        0.99670392274856567,
        0.99925088882446289,
        1
      ],
      "min": [
        -0.91413861513137817,
        -0.86569869518280029,
        -0.99923914670944214,
        1
      ],
      "type": "VEC4"
    },
    {
      "bufferView": 1,
      "byteOffset": 2304,
      "componentType": 5126,
      "count": 2820,
      "max": [
        0.98552697896957397,
        0.9818120002746582
      ],
      "min": [
        0.0073790000751614571,
        0.0099520003423094749
      ],
      "type": "VEC2"
    },
    {
      "bufferView": 0,
      "byteOffset": 19920,
      "componentType": 5125,
      "count": 16128,
      "max": [
        2819
      ],
      "min": [
        0
      ],
      "type": "SCALAR"
    },
    {
      "bufferView": 2,
      "byteOffset": 87696,
      "componentType": 5126,
      "count": 2672,
      "max": [
        1.0495309829711914,
        1.1814589500427246,
        0.36277499794960022
      ],
      "min": [
        -1.1629790067672729,
        -1.2264189720153809,
        -0.070486001670360565
      ],
      "type": "VEC3"
    },
    {
      "bufferView": 2,
      "byteOffset": 119760,
      "componentType": 5126,
      "count": 2672,
      "max": [
        0.99678444862365723,
        0.99651509523391724,
        0.99985373020172119
      ],
      "min": [
        -0.99957329034805298,
        -0.99086630344390869,
        -0.99984687566757202
      ],
      "type": "VEC3"
    },
    {
      "bufferView": 3,
      "byteOffset": 49728,
      "componentType": 5126,
      "count": 2672,
      "max": [
        0.99999958276748657,
        0.95701026916503906,
        0.99732279777526855,
        1
      ],
      "min": [
        -0.99999672174453735,
        -0.9987749457359314,
        -0.99647831916809082,
        1
      ],
      "type": "VEC4"
    },
    {
      "bufferView": 1,
      "byteOffset": 24864,
      "componentType": 5126,
      "count": 2672,
      "max": [
        0.80989998579025269,
        0.99908697605133057
      ],
      "min": [
        0.033008001744747162,
        0.0014619999565184116
      ],
      "type": "VEC2"
    },
    {
      "bufferView": 0,
      "byteOffset": 84432,
      "componentType": 5125,
      "count": 12888,
      "max": [
        2671
      ],
      "min": [
        0
      ],
      "type": "SCALAR"
    }
  ],
  "asset": {
    "extras": {
      "author": "Jeremy E. Grayson (https://sketchfab.com/JeremyGrayson)",
      "license": "CC-BY-4.0 (http://creativecommons.org/licenses/by/4.0/)",
      "source": "https://sketchfab.com/models/6603d45a07dd49b697c327bdd2aff6c3",
      "title": "Egg Sandwich"
    },
    "generator": "Sketchfab-3.53.1",
    "version": "2.0"
  },
  "bufferViews": [
    {
      "buffer": 0,
      "byteLength": 135984,
      "byteOffset": 0,
      "name": "floatBufferViews",
      "target": 34963
    },
    {
      "buffer": 0,
      "byteLength": 46240,
      "byteOffset": 135984,
      "byteStride": 8,
      "name": "floatBufferViews",
      "target": 34962
    },
    {
      "buffer": 0,
      "byteLength": 151824,
      "byteOffset": 182224,
      "byteStride": 12,
      "name": "floatBufferViews",
      "target": 34962
    },
    {
      "buffer": 0,
      "byteLength": 92480,
      "byteOffset": 334048,
      "byteStride": 16,
      "name": "floatBufferViews",
      "target": 34962
    }
  ],
  "buffers": [
    {
      "byteLength": 426528,
      "uri": "scene.bin"
    }
  ],
  "images": [
    {
      "uri": "textures/Material.001_baseColor.png"
    },
    {
      "uri": "textures/Material.000_baseColor.png"
    },
    {
      "uri": "textures/Material.000_normal.png"
    },
    {
      "uri": "textures/Material_baseColor.png"
    }
  ],
  "materials": [
    {
      "doubleSided": true,
      "name": "Material",
      "pbrMetallicRoughness": {
        "baseColorFactor": [
          1,
          1,
          1,
          1
        ],
        "baseColorTexture": {
          "index": 3,
          "texCoord": 0
        },
        "metallicFactor": 0,
        "roughnessFactor": 0.59999999999999998
      }
    },
    {
      "doubleSided": true,
      "name": "Material.000",
      "normalTexture": {
        "index": 2,
        "scale": 1,
        "texCoord": 0
      },
      "pbrMetallicRoughness": {
        "baseColorFactor": [
          1,
          1,
          1,
          1
        ],
        "baseColorTexture": {
          "index": 1,
          "texCoord": 0
        },
        "metallicFactor": 0,
        "roughnessFactor": 0.59999999999999998
      }
    },
    {
      "doubleSided": true,
      "name": "Material.001",
      "pbrMetallicRoughness": {
        "baseColorFactor": [
          1,
          1,
          1,
          1
        ],
        "baseColorTexture": {
          "index": 0,
          "texCoord": 0
        },
        "metallicFactor": 0,
        "roughnessFactor": 0.59999999999999998
      }
    },
    {
      "doubleSided": true,
      "name": "Material.002",
      "pbrMetallicRoughness": {
        "baseColorFactor": [
          1,
          0.47230732040000001,
          0,
          1
        ],
        "metallicFactor": 0,
        "roughnessFactor": 0.59999999999999998
      }
    }
  ],
  "meshes": [
    {
      "primitives": [
        {
          "attributes": {
            "NORMAL": 1,
            "POSITION": 0
          },
          "indices": 2,
          "material": 3,
          "mode": 4
        }
      ]
    },
    {
      "primitives": [
        {
          "attributes": {
            "NORMAL": 4,
            "POSITION": 3,
            "TANGENT": 5,
            "TEXCOORD_0": 6
          },
          "indices": 7,
          "material": 2,
          "mode": 4
        }
      ]
    },
    {
      "primitives": [
        {
          "attributes": {
            "NORMAL": 9,
            "POSITION": 8,
            "TANGENT": 10,
            "TEXCOORD_0": 11
          },
          "indices": 12,
          "material": 0,
          "mode": 4
        }
      ]
    },
    {
      "primitives": [
        {
          "attributes": {
            "NORMAL": 14,
            "POSITION": 13,
            "TANGENT": 15,
            "TEXCOORD_0": 16
          },
          "indices": 17,
          "material": 1,
          "mode": 4
        }
      ]
    }
  ],
  "nodes": [
    {
      "children": [
        1
      ],
      "name": "RootNode (gltf orientation matrix)",
      "rotation": [
        -0.70710678118654746,
        -0,
        -0,
        0.70710678118654757
      ]
    },
    {
      "children": [
        2
      ],
      "name": "RootNode (model correction matrix)"
    },
    {
      "children": [
        3,
        4,
        5,
        6
      ],
      "name": "EggSandwich.obj.cleaner.materialmerger.gles"
    },
    {
      "mesh": 0,
      "name": ""
    },
    {
      "mesh": 1,
      "name": ""
    },
    {
      "mesh": 2,
      "name": ""
    },
    {
      "mesh": 3,
      "name": ""
    }
  ],
  "samplers": [
    {
      "magFilter": 9729,
      "minFilter": 9987,
      "wrapS": 10497,
      "wrapT": 10497
    }
  ],
  "scene": 0,
  "scenes": [
    {
      "name": "OSG_Scene",
      "nodes": [
        0
      ]
    }
  ],
  "textures": [
    {
      "sampler": 0,
      "source": 0
    },
    {
      "sampler": 0,
      "source": 1
    },
    {
      "sampler": 0,
      "source": 2
    },
    {
      "sampler": 0,
      "source": 3
    }
  ]
}

